<svg version="1.0" xmlns="http://www.w3.org/2000/svg"
 width="100.000000pt" height="60.000000pt" viewBox="0 0 100.000000 60.000000"
 preserveAspectRatio="xMidYMid meet">

<g transform="translate(0.000000,60.000000) scale(0.100000,-0.100000)"
fill="#000000" stroke="none">
<path d="M806 472 c-6 -10 -67 -22 -116 -23 -59 -2 -79 -43 -40 -84 13 -14 21
-38 22 -70 3 -47 2 -50 -26 -55 -38 -7 -53 -31 -40 -67 9 -26 15 -29 74 -35
103 -11 253 0 268 20 27 36 8 82 -35 82 -33 0 -51 41 -35 82 6 17 9 36 5 41
-3 6 -7 33 -7 61 -1 50 -2 51 -33 54 -17 2 -34 -1 -37 -6z m52 -14 c13 -13 16
-38 5 -38 -5 0 -13 11 -20 25 -12 27 -5 33 15 13z m-176 -40 c-7 -7 -12 -20
-12 -31 0 -10 -4 -15 -10 -12 -14 9 -12 42 3 48 22 10 31 7 19 -5z m137 -109
c-12 -23 -65 -34 -84 -19 -8 7 -15 22 -15 33 0 19 1 19 18 4 25 -23 49 -21 63
4 9 17 13 19 19 8 5 -7 4 -21 -1 -30z m-4 -58 c9 -15 -23 -40 -45 -34 -20 5
-26 23 -13 36 10 10 51 8 58 -2z m-150 -61 c0 -28 -4 -35 -20 -35 -13 0 -21 8
-23 23 -5 34 5 54 25 50 13 -2 18 -13 18 -38z m270 0 c0 -28 -4 -35 -20 -35
-13 0 -21 8 -23 23 -5 34 5 54 25 50 13 -2 18 -13 18 -38z"/>
<path d="M323 347 c-4 -8 -16 -17 -26 -20 -30 -11 -18 -51 16 -55 26 -3 27 -2
27 42 0 48 -4 55 -17 33z m-3 -47 c0 -11 -4 -20 -10 -20 -5 0 -10 9 -10 20 0
11 5 20 10 20 6 0 10 -9 10 -20z"/>
<path d="M470 345 c0 -8 -9 -15 -19 -15 -10 0 -21 -7 -25 -15 -9 -25 4 -45 30
-45 22 0 24 4 24 45 0 25 -2 45 -5 45 -3 0 -5 -7 -5 -15z m-5 -45 c0 -7 -6
-15 -12 -17 -8 -3 -13 4 -13 17 0 13 5 20 13 18 6 -3 12 -11 12 -18z"/>
<path d="M12 334 c-7 -8 -8 -14 -2 -14 5 0 10 -11 10 -25 0 -20 5 -25 23 -24
16 1 18 2 5 6 -24 6 -24 43 0 44 13 0 14 2 2 6 -8 3 -17 9 -20 13 -3 4 -11 2
-18 -6z"/>
<path d="M150 315 c-16 -20 3 -45 34 -44 20 0 21 1 1 9 -18 8 -18 9 -2 9 12 1
17 7 15 18 -4 23 -32 28 -48 8z m35 -5 c3 -5 -1 -10 -9 -10 -9 0 -16 5 -16 10
0 6 4 10 9 10 6 0 13 -4 16 -10z"/>
<path d="M570 322 c0 -7 5 -22 11 -33 8 -15 7 -24 -2 -35 -10 -12 -9 -13 4 -8
16 6 43 71 34 80 -3 3 -8 -5 -12 -17 l-7 -22 -14 24 c-7 13 -13 18 -14 11z"/>
</g>
</svg>
