<svg width="180" height="100" viewBox="0 0 180 100" fill="none" xmlns="http://www.w3.org/2000/svg">
<rect width="180" height="100" fill="white"/>
<path d="M56.1327 32.1543C56.3736 32.0554 56.6436 32.0543 56.8853 32.1514L98.9563 49.0473C99.7534 49.3674 99.8026 50.4771 99.037 50.8665L57.9399 71.7719C57.6579 71.9154 57.3245 71.9169 57.0412 71.776L14.9749 50.8504C14.2054 50.4676 14.2454 49.3566 15.0404 49.0301L56.1327 32.1543Z" fill="#7ADECC"/>
<path d="M56.1327 27.1543C56.3736 27.0554 56.6436 27.0543 56.8853 27.1514L98.9563 44.0473C99.7534 44.3674 99.8026 45.4771 99.037 45.8665L57.9399 66.7719C57.6579 66.9154 57.3245 66.9169 57.0412 66.776L14.9749 45.8504C14.2054 45.4676 14.2454 44.3566 15.0404 44.0301L56.1327 27.1543Z" fill="#4DB181"/>
<path d="M115.22 42.34C115.22 41.7667 115.64 41.48 116.48 41.48C116.84 41.48 117.527 41.4933 118.54 41.52C119.66 41.5733 120.507 41.6 121.08 41.6C121.547 41.6 122.113 41.5733 122.78 41.52C123.233 41.4933 123.52 41.48 123.64 41.48C124.373 41.5067 124.993 41.64 125.5 41.88C125.647 41.9467 125.767 42.0267 125.86 42.12C125.953 42.2133 126 42.3667 126 42.58C126 42.8733 125.907 43.1267 125.72 43.34C125.533 43.54 125.307 43.64 125.04 43.64C124.747 43.64 124.32 43.6 123.76 43.52C123.267 43.4267 122.833 43.38 122.46 43.38C122.1 43.38 121.827 43.3867 121.64 43.4C121.6 43.84 121.58 44.8933 121.58 46.56C121.58 48.5467 121.64 50.56 121.76 52.6L121.8 53.18C121.8 53.7267 121.487 54 120.86 54C120.367 54 120.033 53.8867 119.86 53.66C119.687 53.42 119.6 53.06 119.6 52.58C119.6 51.6333 119.573 50.4533 119.52 49.04C119.467 47.8667 119.44 47.0333 119.44 46.54C119.44 46.2067 119.48 45.1867 119.56 43.48L117.22 43.5C116.473 43.5 115.953 43.4333 115.66 43.3C115.367 43.1533 115.22 42.8333 115.22 42.34ZM128.786 53.2C128.786 53.4267 128.699 53.6267 128.526 53.8C128.352 53.9733 128.139 54.06 127.886 54.06C127.486 54.06 127.192 53.9867 127.006 53.84C126.819 53.68 126.726 53.3933 126.726 52.98C126.726 52.4867 126.712 51.84 126.686 51.04C126.659 50.3733 126.646 49.8133 126.646 49.36C126.646 49.1467 126.659 48.8667 126.686 48.52C126.712 48.2 126.726 47.96 126.726 47.8C126.686 47.5467 126.586 47.34 126.426 47.18C126.266 47.0067 126.059 46.92 125.806 46.92C125.686 46.92 125.586 46.8667 125.506 46.76C125.426 46.64 125.386 46.52 125.386 46.4C125.386 46.0933 125.506 45.86 125.746 45.7C125.999 45.54 126.299 45.46 126.646 45.46C127.366 45.46 127.866 45.8867 128.146 46.74C128.492 46.34 128.886 46.02 129.326 45.78C129.779 45.5267 130.212 45.4 130.626 45.4C131.119 45.4 131.566 45.5333 131.966 45.8C132.379 46.0667 132.586 46.4267 132.586 46.88C132.586 47.1333 132.472 47.3933 132.246 47.66C132.032 47.9267 131.812 48.06 131.586 48.06C131.466 48.06 131.359 48.0333 131.266 47.98C131.186 47.9133 131.086 47.82 130.966 47.7C130.832 47.5667 130.719 47.4733 130.626 47.42C130.532 47.3533 130.426 47.32 130.306 47.32C130.092 47.32 129.892 47.3533 129.706 47.42C129.519 47.4867 129.392 47.5667 129.326 47.66C129.112 47.9933 128.952 48.2933 128.846 48.56C128.752 48.8267 128.706 49.1133 128.706 49.42C128.706 49.6467 128.699 49.8267 128.686 49.96L128.666 51.1C128.666 51.2733 128.672 51.4667 128.686 51.68C128.699 51.8933 128.712 52.0533 128.726 52.16C128.766 52.52 128.786 52.8667 128.786 53.2ZM142.875 53.04C142.875 53.3333 142.715 53.58 142.395 53.78C142.088 53.98 141.802 54.08 141.535 54.08C141.028 54.08 140.622 54.02 140.315 53.9C140.022 53.7667 139.748 53.5267 139.495 53.18C139.148 53.4867 138.675 53.72 138.075 53.88C137.475 54.0267 136.922 54.1 136.415 54.1C135.588 54.1 134.908 53.88 134.375 53.44C133.842 52.9867 133.575 52.3267 133.575 51.46C133.575 51.0867 133.675 50.7467 133.875 50.44C134.075 50.12 134.348 49.84 134.695 49.6C135.082 49.3467 135.522 49.1533 136.015 49.02C136.508 48.8733 137.022 48.8 137.555 48.8C137.835 48.8 138.168 48.8533 138.555 48.96C138.942 49.0667 139.242 49.18 139.455 49.3V48.98C139.455 48.26 139.282 47.7667 138.935 47.5C138.588 47.22 138.028 47.08 137.255 47.08C137.028 47.08 136.802 47.1267 136.575 47.22C136.362 47.3133 136.115 47.44 135.835 47.6C135.462 47.8 135.108 47.9 134.775 47.9C134.655 47.9 134.542 47.82 134.435 47.66C134.328 47.4867 134.275 47.3333 134.275 47.2C134.275 46.8133 134.455 46.48 134.815 46.2C135.188 45.92 135.628 45.7133 136.135 45.58C136.642 45.4333 137.095 45.36 137.495 45.36C137.895 45.36 138.355 45.44 138.875 45.6C139.395 45.7467 139.822 45.9533 140.155 46.22C140.555 46.5667 140.862 46.9733 141.075 47.44C141.302 47.8933 141.415 48.3933 141.415 48.94C141.415 49.1133 141.402 49.3733 141.375 49.72C141.348 50.0933 141.335 50.4133 141.335 50.68C141.335 50.8 141.322 50.98 141.295 51.22C141.268 51.5133 141.255 51.7467 141.255 51.92C141.255 52.08 141.315 52.22 141.435 52.34C141.555 52.4467 141.695 52.5 141.855 52.5L142.415 52.48C142.562 52.48 142.675 52.5333 142.755 52.64C142.835 52.7467 142.875 52.88 142.875 53.04ZM136.435 52.52C137.008 52.52 137.488 52.46 137.875 52.34C138.262 52.22 138.728 52 139.275 51.68C139.328 51.4533 139.362 51.1533 139.375 50.78C138.642 50.4333 138.035 50.26 137.555 50.26C137.008 50.26 136.522 50.36 136.095 50.56C135.668 50.76 135.455 51.1133 135.455 51.62C135.455 51.8733 135.562 52.0867 135.775 52.26C135.988 52.4333 136.208 52.52 136.435 52.52ZM148.845 48.86C148.885 48.7533 149.025 48.3667 149.265 47.7C149.518 47.0333 149.751 46.5267 149.965 46.18C150.311 45.6333 150.618 45.36 150.885 45.36C151.258 45.36 151.545 45.4333 151.745 45.58C151.945 45.7133 152.045 45.9067 152.045 46.16C152.045 46.28 151.991 46.4467 151.885 46.66C151.791 46.8733 151.738 47 151.725 47.04C151.191 48.2133 150.711 49.4733 150.285 50.82L149.865 52.38C149.705 52.8867 149.431 53.3 149.045 53.62C148.658 53.9267 148.205 54.08 147.685 54.08C147.218 54.08 146.785 53.8667 146.385 53.44C146.145 53.0667 145.891 52.5933 145.625 52.02C145.371 51.4467 145.151 50.8867 144.965 50.34L144.265 48.24C144.118 47.8267 143.998 47.4733 143.905 47.18C143.825 46.8867 143.785 46.62 143.785 46.38C143.771 46.1 143.851 45.8733 144.025 45.7C144.198 45.5267 144.438 45.44 144.745 45.44C145.091 45.44 145.338 45.5133 145.485 45.66C145.631 45.7933 145.765 46.0067 145.885 46.3C145.938 46.6067 146.085 47.2333 146.325 48.18L146.465 48.74C146.585 49.1933 146.738 49.6533 146.925 50.12C147.111 50.5867 147.298 51.0333 147.485 51.46C147.458 51.3933 147.551 51.6133 147.765 52.12C147.898 51.7333 148.051 51.26 148.225 50.7L148.845 48.86ZM153.262 49.42C153.262 48.6067 153.442 47.9333 153.802 47.4C154.162 46.8533 154.662 46.34 155.302 45.86C155.489 45.7267 155.802 45.6133 156.242 45.52C156.682 45.4133 157.069 45.36 157.402 45.36C157.802 45.36 158.222 45.4467 158.662 45.62C159.116 45.78 159.482 45.9667 159.762 46.18C160.256 46.54 160.596 46.96 160.782 47.44C160.969 47.9067 161.062 48.4667 161.062 49.12C161.062 49.4 160.902 49.6733 160.582 49.94C160.276 50.1933 159.942 50.32 159.582 50.32L158.822 50.3C158.436 50.3 157.882 50.3133 157.162 50.34L156.742 50.36C156.449 50.3867 156.229 50.4 156.082 50.4C155.869 50.4 155.576 50.3733 155.202 50.32C155.256 50.9467 155.489 51.44 155.902 51.8C156.316 52.1467 156.762 52.32 157.242 52.32C158.082 52.32 158.669 52.1533 159.002 51.82C159.282 51.62 159.469 51.4933 159.562 51.44C159.656 51.3867 159.802 51.36 160.002 51.36C160.216 51.36 160.402 51.46 160.562 51.66C160.722 51.86 160.802 52.06 160.802 52.26C160.802 52.4867 160.662 52.72 160.382 52.96C160.116 53.1867 159.749 53.4267 159.282 53.68C159.029 53.7867 158.682 53.88 158.242 53.96C157.802 54.04 157.436 54.08 157.142 54.08C156.676 54.08 156.156 53.9467 155.582 53.68C155.009 53.4 154.582 53.0933 154.302 52.76C154.022 52.4267 153.776 51.9533 153.562 51.34C153.362 50.7267 153.262 50.0867 153.262 49.42ZM157.242 48.88C158.189 48.88 158.882 48.8467 159.322 48.78C159.296 48.3933 159.176 48.08 158.962 47.84C158.749 47.5867 158.456 47.3733 158.082 47.2C157.962 47.1467 157.856 47.1067 157.762 47.08C157.669 47.0533 157.562 47.04 157.442 47.04C156.829 47.04 156.309 47.2067 155.882 47.54C155.469 47.8733 155.222 48.3 155.142 48.82C155.809 48.86 156.509 48.88 157.242 48.88ZM165.195 50.9C165.195 51.4067 165.268 51.8 165.415 52.08C165.575 52.3467 165.775 52.48 166.015 52.48C166.148 52.48 166.275 52.4733 166.395 52.46C166.515 52.4333 166.635 52.42 166.755 52.42C166.888 52.42 167.001 52.4867 167.095 52.62C167.201 52.7533 167.255 52.9 167.255 53.06C167.255 53.38 167.101 53.6333 166.795 53.82C166.501 53.9933 166.101 54.08 165.595 54.08C165.235 54.08 164.868 53.9733 164.495 53.76C164.135 53.5333 163.835 53.1867 163.595 52.72C163.355 52.24 163.235 51.6467 163.235 50.94C163.235 49.42 163.261 48.1333 163.315 47.08C163.381 45.8267 163.415 44.2467 163.415 42.34C163.415 41.74 163.448 41.32 163.515 41.08C163.595 40.8933 163.721 40.7533 163.895 40.66C164.081 40.5533 164.275 40.5 164.475 40.5C164.675 40.5 164.848 40.5333 164.995 40.6C165.155 40.6667 165.261 40.7733 165.315 40.92C165.368 41.08 165.401 41.24 165.415 41.4C165.441 41.5467 165.455 41.76 165.455 42.04C165.455 42.5867 165.435 43.1133 165.395 43.62C165.368 44.2333 165.355 44.68 165.355 44.96C165.248 47.3067 165.195 49.2867 165.195 50.9Z" fill="black"/>
</svg>
